<?xml version="1.0" encoding="UTF-8"?>
<svg width="43px" height="42px" viewBox="0 0 43 42" version="1.1" xmlns="http://www.w3.org/2000/svg" xmlns:xlink="http://www.w3.org/1999/xlink">
    <!-- Generator: Sketch 52.6 (67491) - http://www.bohemiancoding.com/sketch -->
    <title>Group 5</title>
    <desc>Created with Sketch.</desc>
    <g id="Page-1" stroke="none" stroke-width="1" fill="none" fill-rule="evenodd">
        <g id="iPhone-SE" transform="translate(-10.000000, -20.000000)">
            <g id="Group-5" transform="translate(10.000000, 20.000000)">
                <g id="Group-4" fill="#365E7A">
                    <g id="Group-3">
                        <circle id="Oval" cx="21.5" cy="21" r="21"></circle>
                    </g>
                </g>
                <g id="left-arrow-(1)" transform="translate(12.000000, 13.000000)" fill="#FFFFFF">
                    <path d="M18.8757726,6.4893944 L18.9069921,6.49597212 L5.52390559,6.49597212 L9.73105915,2.43485411 C9.93707536,2.23658272 10.0500835,1.96799233 10.0500835,1.68608988 C10.0500835,1.40418743 9.93707536,1.13747639 9.73105915,0.938735159 L9.07642514,0.30790012 C8.87057153,0.109628731 8.59626265,0 8.30374239,0 C8.01105952,0 7.73658804,0.108845668 7.53073442,0.307117058 L0.318866075,7.25272359 C0.112199454,7.45177804 -0.000808651634,7.71692296 4.35631867e-06,7.99898202 C-0.000808651634,8.28260721 0.112199454,8.54790873 0.318866075,8.74664996 L7.53073442,15.6928829 C7.73658804,15.8909977 8.01089692,16 8.30374239,16 C8.59626265,16 8.87057153,15.8908411 9.07642514,15.6928829 L9.73105915,15.0620479 C9.93707536,14.8640897 10.0500835,14.5997279 10.0500835,14.3178254 C10.0500835,14.0360796 9.93707536,13.7856563 9.73105915,13.5875415 L5.47642593,9.50371465 L18.8907319,9.50371465 C19.493496,9.50371465 20,9.0033378 20,8.42308859 L20,7.53086734 C20,6.95061813 19.4785367,6.4893944 18.8757726,6.4893944 Z" id="Path"></path>
                </g>
            </g>
        </g>
    </g>
</svg>